<svg width="50" height="75" viewBox="0 0 50 75" fill="none" xmlns="http://www.w3.org/2000/svg">
<path d="M41.3145 1.18456C43.0002 0.804791 44.9145 0.789291 46.4064 1.78521C49.3826 3.47478 50.0181 7.88471 47.9643 10.5276C45.7825 13.7595 40.3534 13.5657 38.2764 10.3106C37.1487 8.86513 37.1719 6.92755 37.4199 5.20698C37.8772 3.28102 39.4738 1.80071 41.3145 1.18456Z" fill="#6A6A6A"/>
<path d="M8.83672 25.9678C11.8632 25.061 15.3082 25.1346 18.0945 26.7429C22.0278 28.6845 24.8721 32.897 24.7055 37.346C25.155 43.9497 18.9625 49.9526 12.4135 49.6C5.97685 49.7085 -0.00639825 43.8256 0.493498 37.2995C0.365617 32.1801 4.03152 27.5102 8.83672 25.9678Z" fill="#6A6A6A"/>
<path d="M37.0944 37.5901C41.0742 37.346 45.0695 37.5048 49.0532 37.5087C49.4019 42.3375 48.2859 47.1778 46.4142 51.6113C44.1821 57.0407 40.5472 61.8966 36.0404 65.6557C32.4055 68.9343 27.9025 71.027 23.3492 72.7012C20.408 73.5576 17.3776 74.1196 14.3162 74.2513C13.7349 74.2242 13.173 74.0692 12.6073 73.9607C12.6228 69.9884 12.5414 66.0122 12.6576 62.04C19.0865 62.0671 25.4147 59.4163 29.9215 54.8433C32.1458 52.584 33.971 49.9022 35.1878 46.9724C35.5211 46.116 35.8272 45.2518 36.1295 44.3837C36.2457 43.9767 36.3698 43.5698 36.4976 43.1707C36.8813 41.3299 37.0324 39.4658 37.0944 37.5901Z" fill="#6A6A6A"/>
</svg>
