<svg width="164" height="52" viewBox="0 0 164 52" fill="none" xmlns="http://www.w3.org/2000/svg">
<path d="M11.5342 0.641602H150.511C151.004 0.641602 151.502 0.641738 151.97 0.654297H151.986C152.186 0.654297 152.393 0.657911 152.605 0.661133C152.81 0.664234 153.021 0.665833 153.226 0.666016V0.666992C154.019 0.689224 154.792 0.730873 155.547 0.838867L155.869 0.888672L155.871 0.889648C156.73 1.03407 157.519 1.27212 158.308 1.6416V1.64258C158.976 1.96688 159.594 2.37247 160.135 2.8418L160.362 3.04688C160.954 3.60238 161.459 4.25265 161.85 4.96191V4.96289C162.24 5.68391 162.491 6.41376 162.63 7.20605L162.634 7.22754C162.758 7.82053 162.819 8.427 162.854 9.05176L162.88 9.68262V10.8613C162.893 11.3122 162.894 11.7648 162.894 12.2412V39.1104C162.894 39.5867 162.893 40.0394 162.88 40.4902V41.6709C162.844 42.4171 162.799 43.1346 162.686 43.834L162.632 44.1338L162.63 44.1455C162.492 44.9347 162.242 45.6616 161.854 46.3799C161.509 46.9974 161.088 47.5727 160.587 48.0762L160.367 48.2871L160.362 48.292C159.828 48.7933 159.239 49.2188 158.595 49.5547L158.315 49.6934C157.623 50.0185 156.93 50.2425 156.19 50.3906L155.871 50.4492H155.869C155.227 50.5589 154.571 50.6147 153.901 50.6465L153.226 50.6719H153.224C152.826 50.6843 152.398 50.6846 151.986 50.6846H11.5342C11.1239 50.6846 10.7274 50.6723 10.3311 50.6475L10.3203 50.6465H10.3096C9.52764 50.6242 8.7455 50.5826 7.98828 50.4746L7.66602 50.4238H7.66406C6.90967 50.297 6.21068 50.0975 5.52832 49.8018L5.2373 49.6689L5.2334 49.667L4.95215 49.5283C4.39587 49.2394 3.8789 48.8858 3.41699 48.4785L3.19141 48.2705L3.18164 48.2617L2.95898 48.0488C2.45181 47.544 2.02714 46.9801 1.7002 46.3662L1.69629 46.3584L1.69238 46.3516L1.55176 46.0889C1.28402 45.5595 1.09842 45.0038 0.96582 44.4102L0.90332 44.1094V44.1084L0.849609 43.8086C0.768228 43.3071 0.723353 42.7963 0.695312 42.2744L0.668945 41.6436V41.6416L0.649414 41.0566C0.644396 40.8652 0.641603 40.6757 0.641602 40.4834V10.8301C0.641602 10.6443 0.645005 10.4541 0.648438 10.2559C0.651726 10.066 0.655049 9.8683 0.655273 9.66992C0.678896 8.92693 0.722088 8.20658 0.835938 7.50488L0.889648 7.20508V7.20312C1.02304 6.5039 1.23314 5.8558 1.54492 5.22168L1.68457 4.9502L1.68652 4.94629C2.01504 4.32941 2.44083 3.75635 2.94629 3.25098L3.16797 3.03906L3.17773 3.0293C3.69458 2.53376 4.28967 2.10842 4.93848 1.77148L5.21973 1.63281L5.22363 1.63086C5.90181 1.30729 6.59106 1.08362 7.33008 0.935547L7.65039 0.876953L7.65234 0.875977C8.50903 0.729768 9.38865 0.679703 10.2949 0.654297L10.2939 0.65332C10.5058 0.653159 10.7137 0.650576 10.916 0.647461C11.125 0.644245 11.3283 0.641606 11.5342 0.641602Z" stroke="white" stroke-width="1.28315"/>
<path d="M33.8526 26.0484C33.8116 22.5197 36.9276 20.8003 37.0779 20.7233C35.3149 18.311 32.5816 17.9774 31.6249 17.9517C29.3289 17.7207 27.1012 19.2349 25.9396 19.2349C24.7506 19.2349 22.9466 17.9645 21.0059 18.003C18.5049 18.0415 16.1679 19.4017 14.8969 21.506C12.2592 25.8046 14.2272 32.1176 16.7555 35.595C18.0265 37.3015 19.5026 39.2006 21.4432 39.1236C23.3429 39.0466 24.0536 37.9944 26.3359 37.9944C28.6046 37.9944 29.2606 39.1236 31.2423 39.0851C33.2786 39.0595 34.5633 37.3785 35.7796 35.6591C37.2419 33.7087 37.8296 31.784 37.8569 31.6942C37.7886 31.6814 33.8936 30.2827 33.8526 26.0484Z" fill="white"/>
<path d="M30.1219 15.6677C31.1469 14.4743 31.8439 12.8447 31.6389 11.1895C30.1629 11.2536 28.3179 12.1518 27.2519 13.3195C26.3089 14.346 25.4752 16.0398 25.6939 17.6309C27.3476 17.7464 29.0559 16.8482 30.1219 15.6677Z" fill="white"/>
<path d="M57.8101 34.825H51.3458L49.7878 39.1364H47.0544L53.1771 23.1997H56.0197L62.1424 39.1364H59.3544L57.8101 34.825ZM52.0154 32.8361H57.1404L54.6121 25.843H54.5437L52.0154 32.8361Z" fill="white"/>
<path d="M75.3853 33.3241C75.3853 36.9298 73.3216 39.2523 70.2194 39.2523C68.4564 39.2523 67.0624 38.5081 66.3244 37.2249H66.2697V42.9734H63.7278V27.5115H66.1877V29.449H66.2287C66.9394 28.2044 68.4427 27.396 70.1647 27.396C73.3216 27.396 75.3853 29.7185 75.3853 33.3241ZM72.775 33.3241C72.775 30.976 71.4767 29.4234 69.5087 29.4234C67.5681 29.4234 66.2561 31.0016 66.2561 33.3241C66.2561 35.6595 67.5681 37.2377 69.5087 37.2377C71.4767 37.2377 72.775 35.698 72.775 33.3241Z" fill="white"/>
<path d="M88.9978 33.3241C88.9978 36.9298 86.9341 39.2523 83.8318 39.2523C82.0688 39.2523 80.6748 38.5081 79.9368 37.2249H79.8821V42.9734H77.3538V27.5115H79.8138V29.449H79.8548C80.5654 28.2044 82.0688 27.396 83.7908 27.396C86.9341 27.396 88.9978 29.7185 88.9978 33.3241ZM86.3874 33.3241C86.3874 30.976 85.0891 29.4234 83.1211 29.4234C81.1804 29.4234 79.8684 31.0016 79.8684 33.3241C79.8684 35.6595 81.1804 37.2377 83.1211 37.2377C85.1028 37.2377 86.3874 35.698 86.3874 33.3241Z" fill="white"/>
<path d="M98.0041 34.6966C98.1955 36.2749 99.8218 37.3143 102.063 37.3143C104.209 37.3143 105.739 36.2749 105.739 34.8506C105.739 33.6188 104.81 32.8746 102.61 32.3613L100.409 31.8609C97.2935 31.1552 95.8448 29.7822 95.8448 27.5623C95.8448 24.8164 98.4005 22.9302 102.022 22.9302C105.603 22.9302 108.063 24.8164 108.145 27.5623H105.575C105.425 25.9712 104.017 25.0089 101.981 25.0089C99.9448 25.0089 98.5371 25.9841 98.5371 27.3955C98.5371 28.5247 99.4255 29.1791 101.612 29.6924L103.484 30.1286C106.969 30.8985 108.418 32.2202 108.418 34.5427C108.418 37.5196 105.89 39.393 101.872 39.393C98.1135 39.393 95.5715 37.5709 95.4075 34.6838H98.0041V34.6966Z" fill="white"/>
<path d="M113.911 24.7646V27.5106H116.261V29.3968H113.911V35.7997C113.911 36.8006 114.376 37.2625 115.414 37.2625C115.674 37.2625 116.084 37.224 116.248 37.2112V39.0846C115.961 39.1487 115.4 39.2 114.84 39.2C112.339 39.2 111.355 38.3147 111.355 36.0692V29.4096H109.551V27.5234H111.355V24.7646H113.911Z" fill="white"/>
<path d="M117.615 33.3234C117.615 29.6665 119.911 27.3696 123.478 27.3696C127.059 27.3696 129.341 29.6665 129.341 33.3234C129.341 36.9932 127.073 39.2772 123.478 39.2772C119.898 39.2772 117.615 36.9932 117.615 33.3234ZM126.772 33.3234C126.772 30.8213 125.542 29.3328 123.492 29.3328C121.442 29.3328 120.212 30.8213 120.212 33.3234C120.212 35.8384 121.428 37.314 123.492 37.314C125.556 37.314 126.772 35.8384 126.772 33.3234Z" fill="white"/>
<path d="M131.459 27.5111H133.878V29.4872H133.933C134.316 28.1784 135.45 27.3828 136.912 27.3828C137.281 27.3828 137.582 27.4341 137.787 27.4726V29.7053C137.582 29.6283 137.145 29.5642 136.653 29.5642C135.013 29.5642 134.001 30.6035 134.001 32.2331V39.1236H131.459V27.5111Z" fill="white"/>
<path d="M149.485 35.7229C149.143 37.8272 146.957 39.2772 144.155 39.2772C140.561 39.2772 138.319 37.0189 138.319 33.3747C138.319 29.7306 140.561 27.3696 144.046 27.3696C147.462 27.3696 149.622 29.5766 149.622 33.1053V33.9265H140.889V34.0676C140.889 36.0565 142.214 37.3525 144.223 37.3525C145.631 37.3525 146.738 36.7237 147.08 35.7229H149.485ZM140.902 32.2456H147.093C147.039 30.462 145.822 29.2943 144.059 29.2943C142.31 29.3072 141.039 30.5005 140.902 32.2456Z" fill="white"/>
<path d="M51.7008 11.2021C54.1199 11.2021 55.5412 12.6008 55.5412 15.0003C55.5412 17.4511 54.1335 18.8497 51.7008 18.8497H48.7488V11.2021H51.7008ZM50.0198 17.7719H51.5505C53.2588 17.7719 54.2429 16.771 54.2429 15.0131C54.2429 13.2809 53.2452 12.28 51.5505 12.28H50.0198V17.7719Z" fill="white"/>
<path d="M56.9626 15.963C56.9626 14.1025 58.0696 12.9604 59.86 12.9604C61.6503 12.9604 62.7573 14.0896 62.7573 15.963C62.7573 17.8365 61.6503 18.9656 59.86 18.9656C58.0696 18.9656 56.9626 17.8365 56.9626 15.963ZM61.5137 15.963C61.5137 14.7055 60.9123 13.9741 59.86 13.9741C58.8076 13.9741 58.2063 14.7055 58.2063 15.963C58.2063 17.2205 58.794 17.9519 59.86 17.9519C60.926 17.9519 61.5137 17.2205 61.5137 15.963Z" fill="white"/>
<path d="M70.4788 18.8625H69.2214L67.9505 14.6025H67.8548L66.5838 18.8625H65.3402L63.6455 13.0884H64.8755L65.9825 17.5024H66.0781L67.3491 13.0884H68.5108L69.7818 17.5024H69.8774L70.9708 13.0884H72.1871L70.4788 18.8625Z" fill="white"/>
<path d="M73.5952 13.0758H74.7706V13.9997H74.8662C75.1669 13.3581 75.7819 12.9731 76.6976 12.9731C78.0643 12.9731 78.8296 13.743 78.8296 15.116V18.8628H77.6133V15.4111C77.6133 14.4873 77.1896 14.0253 76.2876 14.0253C75.3856 14.0253 74.8116 14.5899 74.8116 15.4881V18.8628H73.5952V13.0758Z" fill="white"/>
<path d="M80.7563 10.8301H81.9728V18.8626H80.7563V10.8301Z" fill="white"/>
<path d="M83.668 15.963C83.668 14.1025 84.7749 12.9604 86.5652 12.9604C88.3555 12.9604 89.4625 14.0896 89.4625 15.963C89.4625 17.8365 88.3555 18.9656 86.5652 18.9656C84.7613 18.9656 83.668 17.8365 83.668 15.963ZM88.2189 15.963C88.2189 14.7055 87.6175 13.9741 86.5652 13.9741C85.5129 13.9741 84.9116 14.7055 84.9116 15.963C84.9116 17.2205 85.4993 17.9519 86.5652 17.9519C87.6175 17.9519 88.2189 17.2205 88.2189 15.963Z" fill="white"/>
<path d="M90.7468 17.2204C90.7468 16.181 91.5668 15.578 93.0291 15.501L94.6965 15.4111V14.9107C94.6965 14.2948 94.2728 13.9612 93.4391 13.9612C92.7558 13.9612 92.2911 14.1921 92.1545 14.6028H90.9792C91.1022 13.6147 92.0998 12.9731 93.4938 12.9731C95.0381 12.9731 95.9128 13.6917 95.9128 14.9107V18.8628H94.7375V18.0545H94.6418C94.2728 18.6319 93.6031 18.9655 92.7968 18.9655C91.6078 18.9527 90.7468 18.2854 90.7468 17.2204ZM94.7101 16.7328V16.2452L93.2068 16.335C92.3595 16.3863 91.9768 16.6558 91.9768 17.1691C91.9768 17.6952 92.4551 17.9903 93.1111 17.9903C94.0268 17.9903 94.7101 17.4514 94.7101 16.7328Z" fill="white"/>
<path d="M97.5112 15.9627C97.5112 14.1406 98.5089 12.9858 100.067 12.9858C100.914 12.9858 101.625 13.3579 101.953 13.9995H102.049V10.8301H103.265V18.8626H102.09V17.9516H101.994C101.625 18.5803 100.914 18.9653 100.067 18.9653C98.4952 18.9524 97.5112 17.7976 97.5112 15.9627ZM98.7686 15.9627C98.7686 17.1945 99.3836 17.9259 100.409 17.9259C101.434 17.9259 102.062 17.1817 102.062 15.9627C102.062 14.7565 101.42 13.9995 100.409 13.9995C99.3836 14.0123 98.7686 14.7565 98.7686 15.9627Z" fill="white"/>
<path d="M108.281 15.963C108.281 14.1025 109.388 12.9604 111.178 12.9604C112.968 12.9604 114.075 14.0896 114.075 15.963C114.075 17.8365 112.968 18.9656 111.178 18.9656C109.388 18.9656 108.281 17.8365 108.281 15.963ZM112.832 15.963C112.832 14.7055 112.23 13.9741 111.178 13.9741C110.126 13.9741 109.524 14.7055 109.524 15.963C109.524 17.2205 110.112 17.9519 111.178 17.9519C112.23 17.9519 112.832 17.2205 112.832 15.963Z" fill="white"/>
<path d="M115.716 13.0758H116.891V13.9997H116.987C117.287 13.3581 117.902 12.9731 118.818 12.9731C120.185 12.9731 120.95 13.743 120.95 15.116V18.8628H119.734V15.4111C119.734 14.4873 119.31 14.0253 118.408 14.0253C117.506 14.0253 116.932 14.5899 116.932 15.4881V18.8628H115.716V13.0758Z" fill="white"/>
<path d="M127.81 11.6382V13.101H129.149V14.0633H127.81V17.0402C127.81 17.6433 128.07 17.9127 128.685 17.9127C128.876 17.9127 128.972 17.8999 129.149 17.8871V18.8366C128.958 18.8623 128.726 18.9008 128.493 18.9008C127.14 18.9008 126.607 18.4517 126.607 17.3353V14.0762H125.637V13.1138H126.607V11.6382H127.81Z" fill="white"/>
<path d="M130.79 10.8301H131.992V14.0123H132.088C132.389 13.3707 133.031 12.9729 133.96 12.9729C135.272 12.9729 136.079 13.7557 136.079 15.1286V18.8626H134.862V15.4109C134.862 14.4871 134.411 14.0251 133.55 14.0251C132.553 14.0251 132.006 14.6154 132.006 15.4879V18.8626H130.79V10.8301Z" fill="white"/>
<path d="M143.171 17.2974C142.898 18.3367 141.914 18.9655 140.506 18.9655C138.743 18.9655 137.664 17.8363 137.664 15.9886C137.664 14.1408 138.771 12.9731 140.506 12.9731C142.215 12.9731 143.253 14.0767 143.253 15.8859V16.2837H138.907V16.3479C138.948 17.3615 139.577 18.0031 140.547 18.0031C141.285 18.0031 141.791 17.7593 142.01 17.2974H143.171ZM138.907 15.4368H142.01C141.982 14.5258 141.395 13.9355 140.493 13.9355C139.591 13.9355 138.976 14.5386 138.907 15.4368Z" fill="white"/>
</svg>
