<?xml version="1.0" standalone="no"?>
<!DOCTYPE svg PUBLIC "-//W3C//DTD SVG 20010904//EN" "http://www.w3.org/TR/2001/REC-SVG-20010904/DTD/svg10.dtd">
<svg version="1.0" xmlns="http://www.w3.org/2000/svg"
    width="256.000000pt" height="256.000000pt" viewBox="0 0 256.000000 256.000000"
    preserveAspectRatio="xMidYMid meet">

    <g transform="translate(0.000000,256.000000) scale(0.100000,-0.100000)"
        fill="#ff4123" stroke="none">
        <path
            d="M780 2502 c0 -168 46 -447 100 -607 16 -49 30 -93 30 -97 0 -5 -205
-8 -455 -8 l-455 0 0 -160 0 -160 545 0 c534 0 544 0 555 -20 6 -11 38 -52 70
-91 33 -39 60 -75 60 -79 0 -4 -27 -40 -60 -79 -32 -39 -64 -80 -70 -91 -11
-20 -21 -20 -555 -20 l-545 0 0 -160 0 -160 455 0 c250 0 455 -3 455 -7 0 -5
-9 -31 -20 -59 -52 -139 -97 -379 -107 -579 l-6 -125 161 0 162 0 0 93 c1 340
134 716 331 931 l49 54 58 -34 c70 -43 199 -105 270 -130 28 -10 52 -21 51
-24 0 -3 -27 -27 -60 -53 -65 -53 -140 -147 -190 -240 -69 -129 -129 -375
-129 -528 l0 -69 154 0 154 0 7 78 c22 261 83 415 205 525 112 101 307 167
493 167 l67 0 0 158 0 158 -152 12 c-408 31 -704 156 -933 393 -232 241 -352
545 -374 944 l-6 120 -157 3 -158 3 0 -59z" />
        <path
            d="M1480 2488 c0 -157 44 -355 110 -495 91 -194 215 -319 411 -412 136
-65 343 -111 507 -111 l52 0 0 160 0 160 -71 0 c-109 0 -261 35 -359 82 -186
89 -303 275 -324 515 -4 37 -9 92 -12 121 l-5 52 -155 0 -154 0 0 -72z" />
    </g>
</svg>