<svg width="24" height="31" viewBox="0 0 24 31" fill="none" xmlns="http://www.w3.org/2000/svg">
<path d="M0.0294189 2.64878C0.0294189 1.24079 1.21338 0.0996094 2.67358 0.0996094H15.8952L23.8277 7.74711V28.1404C23.8277 29.5484 22.6437 30.6896 21.1835 30.6896H2.67273C1.21338 30.6896 0.0294189 29.5484 0.0294189 28.1404V2.64878Z" fill="#FA4022"/>
<path d="M15.8953 0.0996094L23.8277 7.74711H18.5394C17.0792 7.74711 15.8953 6.60593 15.8953 5.19794V0.0996094Z" fill="#FFB3A7"/>
<path d="M5.76296 27.8382V21.4632H6.64435V22.2148H6.71982C6.77214 22.1183 6.8476 22.0066 6.9462 21.8798C7.0448 21.753 7.18164 21.6423 7.35671 21.5478C7.53178 21.4512 7.7632 21.4029 8.05096 21.4029C8.42525 21.4029 8.75929 21.4975 9.05309 21.6866C9.34689 21.8758 9.5773 22.1484 9.74432 22.5046C9.91335 22.8608 9.99787 23.2894 9.99787 23.7905C9.99787 24.2915 9.91436 24.7212 9.74734 25.0794C9.58032 25.4355 9.35091 25.7102 9.05913 25.9034C8.76734 26.0946 8.4343 26.1902 8.06001 26.1902C7.77829 26.1902 7.54788 26.1429 7.36879 26.0483C7.1917 25.9537 7.05285 25.843 6.95224 25.7163C6.85162 25.5895 6.77415 25.4768 6.71982 25.3782H6.66548V27.8382H5.76296ZM6.64737 23.7814C6.64737 24.1074 6.69466 24.3932 6.78924 24.6387C6.88382 24.8842 7.02066 25.0763 7.19975 25.2152C7.37885 25.352 7.59819 25.4205 7.85778 25.4205C8.12743 25.4205 8.35281 25.349 8.53391 25.2061C8.71502 25.0613 8.85186 24.8651 8.94442 24.6175C9.039 24.37 9.08629 24.0913 9.08629 23.7814C9.08629 23.4756 9.04001 23.2009 8.94744 22.9574C8.85689 22.7139 8.72005 22.5217 8.53693 22.3809C8.35582 22.24 8.12944 22.1696 7.85778 22.1696C7.59618 22.1696 7.37482 22.237 7.19371 22.3718C7.01462 22.5066 6.87879 22.6948 6.78622 22.9363C6.69366 23.1777 6.64737 23.4595 6.64737 23.7814ZM12.7447 26.1902C12.3704 26.1902 12.0363 26.0946 11.7425 25.9034C11.4508 25.7102 11.2214 25.4355 11.0543 25.0794C10.8893 24.7212 10.8068 24.2915 10.8068 23.7905C10.8068 23.2894 10.8903 22.8608 11.0574 22.5046C11.2264 22.1484 11.4578 21.8758 11.7516 21.6866C12.0454 21.4975 12.3784 21.4029 12.7507 21.4029C13.0385 21.4029 13.2699 21.4512 13.445 21.5478C13.622 21.6423 13.7589 21.753 13.8555 21.8798C13.9541 22.0066 14.0305 22.1183 14.0849 22.2148H14.1392V19.9178H15.0417V26.0996H14.1603V25.3782H14.0849C14.0305 25.4768 13.9521 25.5895 13.8494 25.7163C13.7488 25.843 13.61 25.9537 13.4329 26.0483C13.2558 26.1429 13.0264 26.1902 12.7447 26.1902ZM12.9439 25.4205C13.2035 25.4205 13.4228 25.352 13.6019 25.2152C13.783 25.0763 13.9199 24.8842 14.0124 24.6387C14.107 24.3932 14.1543 24.1074 14.1543 23.7814C14.1543 23.4595 14.108 23.1777 14.0154 22.9363C13.9229 22.6948 13.7871 22.5066 13.608 22.3718C13.4289 22.237 13.2075 22.1696 12.9439 22.1696C12.6722 22.1696 12.4458 22.24 12.2647 22.3809C12.0836 22.5217 11.9468 22.7139 11.8542 22.9574C11.7637 23.2009 11.7184 23.4756 11.7184 23.7814C11.7184 24.0913 11.7647 24.37 11.8572 24.6175C11.9498 24.8651 12.0866 25.0613 12.2678 25.2061C12.4509 25.349 12.6763 25.4205 12.9439 25.4205ZM18.5364 21.4632V22.1877H15.9163V21.4632H18.5364ZM16.6347 26.0996V20.926C16.6347 20.6362 16.6981 20.3957 16.8249 20.2045C16.9517 20.0114 17.1197 19.8675 17.329 19.7729C17.5382 19.6763 17.7656 19.628 18.0111 19.628C18.1922 19.628 18.3472 19.6431 18.476 19.6733C18.6048 19.7015 18.7004 19.7276 18.7627 19.7518L18.5514 20.4822C18.5092 20.4702 18.4549 20.4561 18.3884 20.44C18.322 20.4219 18.2416 20.4128 18.147 20.4128C17.9276 20.4128 17.7707 20.4672 17.6761 20.5758C17.5835 20.6845 17.5372 20.8414 17.5372 21.0467V26.0996H16.6347Z" fill="white"/>
</svg>
