<svg width="25" height="32" viewBox="0 0 25 32" fill="none" xmlns="http://www.w3.org/2000/svg">
<path d="M0.0294189 3.13901C0.0294189 1.73102 1.21338 0.589844 2.67358 0.589844H15.8952L23.8277 8.23734V28.6307C23.8277 30.0387 22.6437 31.1798 21.1835 31.1798H2.67273C1.21338 31.1798 0.0294189 30.0387 0.0294189 28.6307V3.13901Z" fill="#FA4022"/>
<path d="M15.8953 0.589844L23.8277 8.23734H18.5394C17.0792 8.23734 15.8953 7.09617 15.8953 5.68818V0.589844Z" fill="#FFB3A7"/>
<path d="M4.64715 26.679C4.27871 26.679 3.94989 26.5849 3.66068 26.3967C3.37346 26.2065 3.14764 25.9362 2.98322 25.5855C2.82079 25.2329 2.73958 24.81 2.73958 24.3168C2.73958 23.8236 2.82178 23.4016 2.9862 23.051C3.15259 22.7004 3.38039 22.432 3.6696 22.2458C3.9588 22.0596 4.28664 21.9665 4.6531 21.9665C4.93636 21.9665 5.16416 22.014 5.3365 22.1091C5.51081 22.2022 5.64551 22.3112 5.74059 22.436C5.83766 22.5608 5.91293 22.6707 5.96641 22.7658H6.0199V20.5046H6.90832V26.5898H6.04069V25.8797H5.96641C5.91293 25.9768 5.83567 26.0877 5.73465 26.2125C5.63561 26.3373 5.49893 26.4462 5.32461 26.5393C5.15029 26.6324 4.92448 26.679 4.64715 26.679ZM4.84326 25.9213C5.09879 25.9213 5.31471 25.854 5.491 25.7193C5.66928 25.5826 5.80398 25.3934 5.8951 25.1517C5.9882 24.9101 6.03475 24.6288 6.03475 24.3079C6.03475 23.9909 5.98919 23.7136 5.89807 23.4759C5.80695 23.2382 5.67324 23.053 5.49695 22.9203C5.32065 22.7876 5.10275 22.7212 4.84326 22.7212C4.57584 22.7212 4.35299 22.7905 4.17472 22.9292C3.99644 23.0679 3.86174 23.257 3.77062 23.4967C3.68148 23.7364 3.63691 24.0068 3.63691 24.3079C3.63691 24.6129 3.68247 24.8873 3.77359 25.1309C3.86471 25.3746 3.99941 25.5677 4.17769 25.7103C4.35795 25.851 4.5798 25.9213 4.84326 25.9213ZM10.0988 26.682C9.67088 26.682 9.29749 26.5839 8.97857 26.3878C8.65965 26.1917 8.41204 25.9173 8.23574 25.5647C8.05945 25.2121 7.9713 24.8001 7.9713 24.3287C7.9713 23.8553 8.05945 23.4413 8.23574 23.0867C8.41204 22.7321 8.65965 22.4568 8.97857 22.2607C9.29749 22.0646 9.67088 21.9665 10.0988 21.9665C10.5266 21.9665 10.9 22.0646 11.2189 22.2607C11.5379 22.4568 11.7855 22.7321 11.9618 23.0867C12.1381 23.4413 12.2262 23.8553 12.2262 24.3287C12.2262 24.8001 12.1381 25.2121 11.9618 25.5647C11.7855 25.9173 11.5379 26.1917 11.2189 26.3878C10.9 26.5839 10.5266 26.682 10.0988 26.682ZM10.1017 25.9362C10.379 25.9362 10.6088 25.8629 10.7911 25.7163C10.9733 25.5697 11.108 25.3746 11.1952 25.1309C11.2843 24.8873 11.3289 24.6189 11.3289 24.3257C11.3289 24.0345 11.2843 23.7671 11.1952 23.5235C11.108 23.2778 10.9733 23.0807 10.7911 22.9322C10.6088 22.7836 10.379 22.7093 10.1017 22.7093C9.82242 22.7093 9.59066 22.7836 9.40644 22.9322C9.2242 23.0807 9.08851 23.2778 8.99937 23.5235C8.91221 23.7671 8.86863 24.0345 8.86863 24.3257C8.86863 24.6189 8.91221 24.8873 8.99937 25.1309C9.08851 25.3746 9.2242 25.5697 9.40644 25.7163C9.59066 25.8629 9.82242 25.9362 10.1017 25.9362ZM15.1403 26.682C14.6986 26.682 14.3182 26.5819 13.9993 26.3819C13.6824 26.1798 13.4387 25.9015 13.2684 25.5469C13.098 25.1923 13.0129 24.7863 13.0129 24.3287C13.0129 23.8652 13.1 23.4561 13.2743 23.1015C13.4486 22.745 13.6943 22.4667 14.0112 22.2666C14.3282 22.0665 14.7015 21.9665 15.1314 21.9665C15.478 21.9665 15.7871 22.0309 16.0584 22.1596C16.3298 22.2864 16.5487 22.4647 16.7151 22.6945C16.8835 22.9242 16.9835 23.1927 17.0152 23.4997H16.1506C16.103 23.2858 15.9941 23.1015 15.8237 22.947C15.6553 22.7925 15.4295 22.7153 15.1463 22.7153C14.8986 22.7153 14.6817 22.7806 14.4955 22.9114C14.3113 23.0401 14.1677 23.2243 14.0647 23.464C13.9617 23.7017 13.9102 23.983 13.9102 24.3079C13.9102 24.6407 13.9607 24.9279 14.0617 25.1696C14.1627 25.4112 14.3054 25.5984 14.4896 25.7311C14.6758 25.8639 14.8947 25.9302 15.1463 25.9302C15.3146 25.9302 15.4672 25.8995 15.6038 25.8381C15.7425 25.7747 15.8584 25.6846 15.9515 25.5677C16.0466 25.4508 16.1129 25.3102 16.1506 25.1458H17.0152C16.9835 25.4409 16.8874 25.7044 16.727 25.9362C16.5665 26.1679 16.3516 26.3502 16.0822 26.4829C15.8148 26.6156 15.5008 26.682 15.1403 26.682ZM18.6256 22.0259L19.6329 23.8028L20.6491 22.0259H21.6207L20.1975 24.3079L21.6326 26.5898H20.661L19.6329 24.8843L18.6078 26.5898H17.6332L19.0535 24.3079L17.6511 22.0259H18.6256Z" fill="white"/>
</svg>
