<svg width="51" height="62" viewBox="0 0 51 62" fill="none" xmlns="http://www.w3.org/2000/svg">
<g clip-path="url(#clip0_35729_8910)">
<g clip-path="url(#clip1_35729_8910)">
<path d="M50.9319 25.5932C50.9319 44.2666 25.9319 61.6952 25.9319 61.6952C25.9319 61.6952 0.931915 44.2666 0.931915 25.5932C0.931915 11.8424 12.1248 0.69519 25.9319 0.69519C39.739 0.69519 50.9319 11.8424 50.9319 25.5932Z" fill="#FA4022"/>
<mask id="mask0_35729_8910" style="mask-type:luminance" maskUnits="userSpaceOnUse" x="0" y="0" width="51" height="62">
<path d="M50.9319 25.5932C50.9319 44.2666 25.9319 61.6952 25.9319 61.6952C25.9319 61.6952 0.931915 44.2666 0.931915 25.5932C0.931915 11.8424 12.1248 0.69519 25.9319 0.69519C39.739 0.69519 50.9319 11.8424 50.9319 25.5932Z" fill="white"/>
</mask>
<g mask="url(#mask0_35729_8910)">
<path d="M25.9319 61.6952L24.7881 63.3359L25.9319 64.1332L27.0757 63.3359L25.9319 61.6952ZM48.9319 25.5932C48.9319 34.1179 43.163 42.6516 36.9703 49.2815C33.9209 52.5463 30.8647 55.2482 28.5685 57.1349C27.4219 58.077 26.4686 58.8126 25.8056 59.3102C25.4742 59.559 25.2156 59.748 25.0419 59.8734C24.955 59.9361 24.8895 59.9829 24.8467 60.0132C24.8252 60.0284 24.8095 60.0395 24.7997 60.0464C24.7948 60.0498 24.7914 60.0523 24.7894 60.0536C24.7885 60.0543 24.7879 60.0547 24.7876 60.0549C24.7877 60.0549 24.7875 60.0549 24.7876 60.0549C24.7878 60.0548 24.7881 60.0545 25.9319 61.6952C27.0757 63.3359 27.0762 63.3355 27.0768 63.3351C27.0771 63.3349 27.0778 63.3344 27.0784 63.3339C27.0797 63.333 27.0814 63.3319 27.0835 63.3304C27.0876 63.3275 27.0932 63.3236 27.1003 63.3186C27.1145 63.3086 27.1347 63.2944 27.1606 63.276C27.2124 63.2393 27.2872 63.1859 27.3834 63.1164C27.576 62.9774 27.8545 62.7738 28.2066 62.5095C28.9108 61.981 29.9107 61.2091 31.1078 60.2255C33.4991 58.2608 36.6929 55.4385 39.8935 52.0119C46.2008 45.2592 52.9319 35.7419 52.9319 25.5932H48.9319ZM25.9319 61.6952C27.0757 60.0545 27.076 60.0548 27.0762 60.0549C27.0763 60.0549 27.0761 60.0549 27.0762 60.0549C27.0759 60.0547 27.0753 60.0543 27.0744 60.0536C27.0724 60.0523 27.069 60.0498 27.0641 60.0464C27.0543 60.0395 27.0386 60.0284 27.0171 60.0132C26.9743 59.9829 26.9088 59.9361 26.8219 59.8734C26.6482 59.748 26.3896 59.559 26.0582 59.3102C25.3952 58.8126 24.4419 58.077 23.2953 57.1349C20.9991 55.2482 17.9429 52.5463 14.8935 49.2815C8.70083 42.6516 2.93192 34.1179 2.93192 25.5932H-1.06808C-1.06808 35.7419 5.663 45.2592 11.9703 52.0119C15.1709 55.4385 18.3647 58.2608 20.756 60.2255C21.9531 61.2091 22.953 61.981 23.6572 62.5095C24.0093 62.7738 24.2878 62.9774 24.4804 63.1164C24.5766 63.1859 24.6514 63.2393 24.7032 63.276C24.7291 63.2944 24.7493 63.3086 24.7635 63.3186C24.7706 63.3236 24.7762 63.3275 24.7803 63.3304C24.7824 63.3319 24.7841 63.333 24.7854 63.3339C24.786 63.3344 24.7867 63.3349 24.787 63.3351C24.7876 63.3355 24.7881 63.3359 25.9319 61.6952ZM2.93192 25.5932C2.93192 12.9547 13.2216 2.69519 25.9319 2.69519V-1.30481C11.0279 -1.30481 -1.06808 10.7301 -1.06808 25.5932H2.93192ZM25.9319 2.69519C38.6422 2.69519 48.9319 12.9547 48.9319 25.5932H52.9319C52.9319 10.7301 40.8359 -1.30481 25.9319 -1.30481V2.69519Z" fill="white"/>
</g>
<path d="M36.9258 24.5326V21.6073C34.5458 21.6073 32.8514 21.0639 31.7471 19.9479C30.635 18.8222 30.0955 17.1044 30.0955 14.6991H27.1702C27.1702 17.8679 28.0096 20.3238 29.667 22.0026C31.3264 23.6815 33.7687 24.5326 36.9258 24.5326Z" fill="white"/>
<path d="M36.9254 29.3101V27.8572C35.1044 27.8474 33.3009 27.6215 31.6376 27.0586C29.9744 26.4997 28.4708 25.5999 27.2672 24.3885C26.0655 23.1693 25.1716 21.6579 24.6165 19.9908C24.0556 18.3236 23.8297 16.5201 23.8199 14.6991H20.8946C20.9121 16.7714 21.1751 18.8845 21.8645 20.9139C21.9424 21.1457 22.0281 21.3775 22.1177 21.6073H13.9358V24.5326H23.6641C24.0673 25.1188 24.5191 25.6719 25.0099 26.19L24.8677 26.34C24.6613 26.5562 24.4724 26.7899 24.2796 27.0177C24.1004 27.2573 23.9056 27.4852 23.742 27.7364C23.7148 27.7773 23.6875 27.8163 23.6602 27.8572H13.9358V30.7825H22.1119C22.1002 30.8136 22.0866 30.8467 22.0749 30.8779C21.2316 33.0865 20.9082 35.4178 20.8966 37.6906H23.8219C23.8277 35.6885 24.1082 33.7078 24.7879 31.9101C25.1268 31.0103 25.5747 30.167 26.1123 29.3938C26.2408 29.1952 26.3947 29.016 26.5329 28.8271C26.6849 28.6479 26.8309 28.4648 26.9945 28.2934L27.2321 28.0422C28.2916 28.7453 29.4427 29.2984 30.6268 29.6918C30.3035 29.9216 29.9919 30.1768 29.7076 30.4631C28.7143 31.4524 28.0638 32.7087 27.6937 33.9532C27.3198 35.2055 27.1873 36.4636 27.1718 37.6887H30.0971C30.0971 36.6643 30.2022 35.6593 30.4652 34.7536C30.7262 33.848 31.1468 33.0534 31.7389 32.4535C32.3193 31.8575 33.1042 31.4291 34.0059 31.1623C34.9077 30.8954 35.9107 30.7844 36.9312 30.7805L36.9254 29.3101Z" fill="white"/>
</g>
</g>
<defs>
<clipPath id="clip0_35729_8910">
<rect width="50" height="61" fill="white" transform="translate(0.931915 0.69519)"/>
</clipPath>
<clipPath id="clip1_35729_8910">
<rect width="50" height="61" fill="white" transform="translate(0.931915 0.69519)"/>
</clipPath>
</defs>
</svg>
