<svg width="54" height="54" viewBox="0 0 54 54" fill="none" xmlns="http://www.w3.org/2000/svg">
<rect width="54" height="54" rx="27" fill="#F6F6F6"/>
<path d="M27.1184 12.7578C25.1719 12.7578 23.3051 13.5206 21.9287 14.8784C20.5522 16.2362 19.779 18.0778 19.779 19.998C19.779 21.9182 20.5522 23.7598 21.9287 25.1176C23.3051 26.4754 25.1719 27.2382 27.1184 27.2382C29.0649 27.2382 30.9317 26.4754 32.3081 25.1176C33.6845 23.7598 34.4578 21.9182 34.4578 19.998C34.4578 18.0778 33.6845 16.2362 32.3081 14.8784C30.9317 13.5206 29.0649 12.7578 27.1184 12.7578ZM27.1184 22.9919C26.3136 22.9919 25.5418 22.6765 24.9727 22.1152C24.4036 21.5538 24.0839 20.7924 24.0839 19.9985C24.0839 19.2046 24.4036 18.4432 24.9727 17.8818C25.5418 17.3204 26.3136 17.0051 27.1184 17.0051C27.923 17.0051 28.6947 17.3204 29.2637 17.8817C29.8327 18.443 30.1523 19.2042 30.1523 19.998C30.1523 20.7918 29.8327 21.553 29.2637 22.1143C28.6947 22.6756 27.923 22.9909 27.1184 22.9909M29.711 33.0002C32.649 32.4102 34.4093 31.0368 34.5021 30.9635C34.9136 30.6366 35.1768 30.162 35.234 29.6439C35.2913 29.1257 35.1379 28.6064 34.8075 28.1996C34.4771 27.7929 33.9967 27.5321 33.4716 27.4742C32.9466 27.4164 32.4197 27.5664 32.0065 27.8913C31.988 27.9065 30.109 29.3277 27.0194 29.3298C23.9298 29.3277 22.0116 27.9055 21.9941 27.8923C21.7896 27.7306 21.5548 27.6102 21.3032 27.538C21.0515 27.4658 20.7879 27.4432 20.5274 27.4715C20.2669 27.4997 20.0146 27.5784 19.7848 27.7029C19.5551 27.8274 19.3525 27.9953 19.1886 28.197C19.0247 28.3987 18.9026 28.6303 18.8294 28.8786C18.7562 29.1268 18.7333 29.3869 18.762 29.6439C18.8199 30.1629 19.0845 30.638 19.4975 30.9646C19.5913 31.0388 21.4249 32.4468 24.4454 33.0236L20.2358 37.3634C20.0522 37.5492 19.9076 37.7689 19.8103 38.01C19.713 38.2511 19.665 38.5087 19.6691 38.7682C19.6731 39.0276 19.7291 39.2837 19.8338 39.5217C19.9386 39.7597 20.0899 39.975 20.2793 40.1551C20.4687 40.3352 20.6922 40.4765 20.9372 40.5711C21.1821 40.6656 21.4436 40.7115 21.7066 40.706C21.9695 40.7005 22.2288 40.6438 22.4695 40.5391C22.7101 40.4344 22.9274 40.2838 23.1089 40.0959L27.0194 35.986L31.3259 40.1234C31.7006 40.4922 32.2085 40.6991 32.7378 40.6985C33.2671 40.6979 33.7745 40.49 34.1484 40.1203C34.5223 39.7507 34.732 39.2497 34.7314 38.7275C34.7309 38.2053 34.52 37.7048 34.1453 37.336L29.711 33.0002Z" fill="#9B9B9B"/>
</svg>
