<svg width="55" height="55" viewBox="0 0 55 55" fill="none" xmlns="http://www.w3.org/2000/svg">
<rect x="0.101929" y="0.256836" width="54.3906" height="54.39" rx="27.195" fill="#F6F6F6"/>
<path d="M41.0798 19.8827C41.2812 19.1998 41.0798 18.6973 40.1238 18.6973H36.9633C36.1596 18.6973 35.7893 19.1315 35.5888 19.6095C35.5888 19.6095 33.9806 23.6078 31.7035 26.2044C30.9672 26.9565 30.6319 27.1955 30.2301 27.1955C30.0296 27.1955 29.7389 26.9565 29.7389 26.2727V19.8827C29.7389 19.0623 29.5052 18.6973 28.8354 18.6973H23.8689C23.3672 18.6973 23.0652 19.0781 23.0652 19.4388C23.0652 20.2162 24.2033 20.3957 24.3206 22.5817V27.3321C24.3206 28.3739 24.1368 28.5621 23.7341 28.5621C22.6634 28.5621 20.0571 24.5463 18.511 19.9509C18.2081 19.058 17.9034 18.6973 17.0962 18.6973H13.9358C13.0323 18.6973 12.8519 19.1315 12.8519 19.6095C12.8519 20.464 13.9235 24.7013 17.8412 30.3052C20.4528 34.1318 24.1324 36.2067 27.4811 36.2067C29.4903 36.2067 29.7389 35.7462 29.7389 34.9522V32.0596C29.7389 31.1377 29.9289 30.9548 30.5654 30.9548C31.0337 30.9548 31.8374 31.1938 33.7127 33.0384C35.8558 35.2262 36.2095 36.2067 37.4151 36.2067H40.5755C41.4781 36.2067 41.9299 35.7462 41.6699 34.8366C41.3845 33.9305 40.361 32.6155 39.0032 31.0572C38.2669 30.1686 37.1621 29.2117 36.8267 28.7328C36.3584 28.1182 36.4923 27.8451 36.8267 27.2979C36.8267 27.2979 40.678 21.7623 41.0798 19.8827Z" fill="#9B9B9B"/>
</svg>
