<?xml version="1.0"?>
<svg width="351" height="351" xmlns="http://www.w3.org/2000/svg"
    xmlns:svg="http://www.w3.org/2000/svg" preserveAspectRatio="xMidYMid meet" version="1.0">
    <g class="layer">
        <title>Layer 1</title>
        <path
            d="m176.25,77.5l-39.75,56l-52.5,12.75l37,48.75c0,0 -1,61.5 -1,61.5c0,0 55.25,-19.25 55.25,-19.25c0,0 57.25,21.75 57.25,21.75c0,0 4,-64 4,-64c0,0 36.75,-40.25 36.25,-45.75c-0.5,-5.5 -53,-18.25 -56.75,-22c-3.75,-3.75 -39.75,-49.75 -39.75,-49.75z"
            fill="#ff9a00" id="svg_22" stroke="#000000" />
        <g fill="#000000" id="svg_1" transform="matrix(1 0 0 1 0 0) matrix(0.1 0 0 -0.1 0 0)">
            <path
                d="m2466,-199.5c-1,-1 -400,-3 -886,-3c-797,-1 -951,-5 -1028,-23c-43,-11 -140,-77 -176,-122c-20,-24 -46,-65 -57,-90c-42,-96 -46,-158 -48,-825c-1,-349 -4,-831 -6,-1070c-5,-471 -3,-506 49,-608c48,-95 171,-185 289,-211c53,-12 1986,-21 2197,-10c176,9 224,19 295,62c85,52 132,104 165,184l31,73l6,518c3,284 6,810 7,1167l1,650l-25,63c-30,77 -72,128 -142,174c-103,68 -120,71 -409,72c-143,1 -262,0 -263,-1zm542,-202c49,-25 97,-87 113,-145c11,-40 9,-429 -7,-1810c-5,-435 -7,-473 -24,-507c-25,-48 -90,-103 -140,-118c-30,-9 -309,-10 -1162,-6c-1195,6 -1186,6 -1243,53c-34,28 -75,88 -86,123c-11,39 -12,262 -3,1404c4,663 8,820 20,862c16,59 59,108 120,139c38,18 71,19 879,22c462,1 914,3 1005,5c399,5 482,2 528,-22z"
                id="svg_2" />
            <path
                d="m1735,-681.5c-70,-12 -118,-57 -162,-151c-12,-25 -46,-97 -75,-160c-30,-63 -69,-147 -87,-185l-32,-70l-222,-23c-291,-29 -309,-34 -362,-87c-32,-31 -45,-53 -50,-86c-21,-123 -7,-149 202,-361c146,-148 174,-181 170,-200c-3,-13 -8,-45 -12,-73c-4,-27 -18,-111 -32,-185c-14,-74 -26,-167 -27,-206c-1,-61 3,-76 27,-113c42,-63 108,-101 177,-101c44,0 70,7 130,38c68,35 306,167 355,197c18,11 43,0 210,-93c241,-133 251,-138 302,-147c73,-12 163,28 198,87c29,50 29,122 -4,341c-41,276 -41,274 12,321c171,155 327,311 341,340c20,43 21,128 0,172c-19,39 -58,80 -96,100c-28,14 -342,54 -431,54c-66,0 -84,12 -112,76c-181,400 -208,447 -281,485c-60,32 -87,38 -139,30zm107,-278c139,-296 200,-419 215,-435c20,-22 68,-35 158,-43c240,-20 407,-42 415,-55c13,-21 1,-37 -97,-129c-48,-47 -126,-121 -173,-165c-137,-131 -143,-140 -137,-212c3,-34 15,-115 26,-180c42,-248 51,-315 46,-324c-12,-19 -42,-9 -155,53c-302,166 -368,198 -397,191c-28,-7 -98,-42 -188,-94c-27,-16 -79,-45 -115,-64c-36,-18 -85,-46 -110,-60c-52,-30 -98,-34 -107,-9c-7,19 6,105 48,318c34,172 40,221 29,250c-4,11 -94,105 -199,210c-108,106 -191,197 -191,207c0,10 11,23 24,27c22,9 235,37 351,46c158,14 198,23 222,53c12,15 62,116 108,217c13,29 88,192 123,267c29,63 47,51 104,-69z"
                id="svg_3" />
        </g>
        <rect fill="#ff9a00" height="0" id="svg_10" stroke="#000000" transform="matrix(1 0 0 1 0 0)"
            width="0" x="189.75" y="102.25" />
        <rect fill="#ff9a00" height="0" id="svg_11" stroke="#000000" width="0" x="78.5" y="111" />
    </g>
    <style>
        svg g path {
        stroke: #000000;
        }
        svg g g {
        fill: #000000;
        }
        svg g rect {
        stroke: #000000;
        }
        @media (prefers-color-scheme: dark) {
        svg g path {
        stroke: #ffffff;
        }
        svg g g {
        fill: #ffffff;
        }
        svg g rect {
        stroke: #ffffff;
        }
        }
    </style>
</svg>