<?xml version="1.0" encoding="UTF-8"?>
<!DOCTYPE svg PUBLIC "-//W3C//DTD SVG 1.1//EN" "http://www.w3.org/Graphics/SVG/1.1/DTD/svg11.dtd">
<svg xmlns="http://www.w3.org/2000/svg" version="1.1" width="398px" height="398px"
    style="shape-rendering:geometricPrecision; text-rendering:geometricPrecision; image-rendering:optimizeQuality; fill-rule:evenodd; clip-rule:evenodd"
    xmlns:xlink="http://www.w3.org/1999/xlink">
    <g>
        <path style="opacity:1" fill="#000000"
            d="M 152.5,70.5 C 165.49,70.9116 175.99,76.245 184,86.5C 199.512,107.195 210.512,130.195 217,155.5C 227.726,194.626 230.393,234.293 225,274.5C 222.987,292.235 216.153,307.735 204.5,321C 193.655,327.67 182.322,328.337 170.5,323C 142.916,310.416 123.082,290.249 111,262.5C 109.079,254.925 111.912,252.425 119.5,255C 122.77,260.87 126.77,266.203 131.5,271C 133.167,271.833 134.833,272.667 136.5,273.5C 143.335,267.862 146.835,260.529 147,251.5C 149.387,221.158 145.054,191.825 134,163.5C 130.718,154.577 125.552,147.077 118.5,141C 116.432,140.313 114.432,140.48 112.5,141.5C 107.811,148.058 104.978,155.391 104,163.5C 98.77,166.954 96.6033,165.454 97.5,159C 100.636,127.397 113.636,100.73 136.5,79C 141.493,75.339 146.827,72.5057 152.5,70.5 Z" />
    </g>
    <g>
        <path style="opacity:1" fill="#000000"
            d="M 205.5,71.5 C 236.861,71.2795 268.194,72.1128 299.5,74C 321.901,75.4427 339.401,85.276 352,103.5C 360.901,126.063 356.735,145.897 339.5,163C 360.78,169.288 373.28,183.454 377,205.5C 378.658,219.222 376.324,232.222 370,244.5C 358.117,264.716 341.95,280.55 321.5,292C 313.955,295.939 306.288,299.606 298.5,303C 281.588,308.137 264.588,312.971 247.5,317.5C 243.582,317.502 241.249,315.669 240.5,312C 249.856,286.7 254.523,260.533 254.5,233.5C 254.058,198.125 247.891,163.791 236,130.5C 229.2,111.55 218.866,94.8838 205,80.5C 202.88,77.3025 203.047,74.3025 205.5,71.5 Z M 290.5,124.5 C 296.851,126.648 300.517,131.148 301.5,138C 300.78,142.941 298.613,147.108 295,150.5C 294.179,142.411 292.346,134.578 289.5,127C 289.743,126.098 290.077,125.265 290.5,124.5 Z M 311.5,215.5 C 326.68,218.547 329.513,226.213 320,238.5C 317.931,240.366 315.598,241.699 313,242.5C 311.674,242.245 310.674,241.578 310,240.5C 309.374,232.821 309.04,225.154 309,217.5C 309.995,216.934 310.828,216.267 311.5,215.5 Z" />
    </g>
    <g>
        <path style="opacity:1" fill="#000000"
            d="M 98.5,169.5 C 101.518,169.335 104.518,169.502 107.5,170C 112.7,175.913 116.2,182.746 118,190.5C 122.63,206.874 124.297,223.541 123,240.5C 122.213,249.169 117.38,253.002 108.5,252C 82.5417,255.129 56.5417,257.463 30.5,259C 28.0439,256.592 26.2106,253.759 25,250.5C 17.4164,230.262 15.4164,209.595 19,188.5C 45.6395,182.342 72.1395,176.009 98.5,169.5 Z M 71.5,184.5 C 78.4829,183.728 83.8162,186.228 87.5,192C 83.2115,200.072 76.3782,204.239 67,204.5C 62.7524,203.979 59.0858,202.312 56,199.5C 55.3333,197.5 55.3333,195.5 56,193.5C 60.2742,188.785 65.4409,185.785 71.5,184.5 Z" />
    </g>
    <style>
    path {
      fill: #000000;
    }
    @media (prefers-color-scheme: dark) {
      path {
        fill: #ffffff;
      }
    }
</style>
</svg>